<svg width="102" height="23" viewBox="0 0 102 23" fill="none" xmlns="http://www.w3.org/2000/svg">
<path fill-rule="evenodd" clip-rule="evenodd" d="M4.12933 13.1603L3.13406 15.0338V21.3274H-0.0859375V0.836477H3.13406V9.76466L7.34934 0.836477H10.5693L6.09061 9.96957L10.5693 21.3274H7.26152L4.12933 13.1603ZM15.115 16.6145C15.115 17.3561 15.2662 17.8781 15.5687 18.1806C15.8712 18.4831 16.2761 18.6343 16.7835 18.6343C17.2909 18.6343 17.6958 18.4831 17.9983 18.1806C18.3008 17.8781 18.4521 17.3561 18.4521 16.6145V5.54939C18.4521 4.80781 18.3008 4.28578 17.9983 3.98329C17.6958 3.68081 17.2909 3.52957 16.7835 3.52957C16.2761 3.52957 15.8712 3.68081 15.5687 3.98329C15.2662 4.28578 15.115 4.80781 15.115 5.54939V16.6145ZM11.895 5.75429C11.895 4.0955 12.3145 2.82215 13.1537 1.9342C13.9929 1.04626 15.2028 0.602295 16.7835 0.602295C18.3643 0.602295 19.5742 1.04626 20.4133 1.9342C21.2525 2.82215 21.6721 4.0955 21.6721 5.75429V16.4096C21.6721 18.0684 21.2525 19.3417 20.4133 20.2297C19.5742 21.1176 18.3643 21.5616 16.7835 21.5616C15.2028 21.5616 13.9929 21.1176 13.1537 20.2297C12.3145 19.3417 11.895 18.0684 11.895 16.4096V5.75429ZM26.9495 6.48611V21.3274H24.0515V0.836477H28.0912L31.399 13.1018V0.836477H34.2677V21.3274H30.9599L26.9495 6.48611ZM36.5008 5.75429C36.5008 4.0955 36.896 2.82215 37.6863 1.9342C38.4767 1.04626 39.6622 0.602295 41.243 0.602295C42.8237 0.602295 44.0092 1.04626 44.7996 1.9342C45.59 2.82215 45.9851 4.0955 45.9851 5.75429V6.39829H42.9408V5.54939C42.9408 4.80781 42.7993 4.28578 42.5163 3.98329C42.2334 3.68081 41.8382 3.52957 41.3308 3.52957C40.8234 3.52957 40.4282 3.68081 40.1452 3.98329C39.8623 4.28578 39.7208 4.80781 39.7208 5.54939C39.7208 6.25193 39.8769 6.87153 40.1892 7.4082C40.5014 7.94487 40.8917 8.45226 41.3601 8.93039C41.8284 9.40851 42.3309 9.88663 42.8676 10.3647C43.4043 10.8429 43.9068 11.3649 44.3752 11.9308C44.8435 12.4968 45.2338 13.1408 45.5461 13.8628C45.8583 14.5849 46.0144 15.4338 46.0144 16.4096C46.0144 18.0684 45.6095 19.3417 44.7996 20.2297C43.9897 21.1176 42.7944 21.5616 41.2137 21.5616C39.633 21.5616 38.4377 21.1176 37.6278 20.2297C36.8179 19.3417 36.413 18.0684 36.413 16.4096V15.1508H39.4573V16.6145C39.4573 17.3561 39.6086 17.8732 39.9111 18.1659C40.2135 18.4587 40.6185 18.605 41.1259 18.605C41.6333 18.605 42.0382 18.4587 42.3407 18.1659C42.6432 17.8732 42.7944 17.3561 42.7944 16.6145C42.7944 15.9119 42.6383 15.2923 42.3261 14.7557C42.0138 14.219 41.6235 13.7116 41.1552 13.2335C40.6868 12.7554 40.1843 12.2772 39.6476 11.7991C39.1109 11.321 38.6084 10.799 38.1401 10.233C37.6717 9.66708 37.2814 9.02309 36.9692 8.30102C36.6569 7.57896 36.5008 6.73006 36.5008 5.75429ZM47.2522 0.836477H57.205V3.76375H53.8386V21.3274H50.6186V3.76375H47.2522V0.836477ZM65.6731 21.3274C65.6341 21.1908 65.5951 21.0639 65.5561 20.9468C65.517 20.8298 65.4829 20.6834 65.4536 20.5078C65.4243 20.3321 65.4048 20.1077 65.3951 19.8345C65.3853 19.5613 65.3804 19.2198 65.3804 18.8099V15.5899C65.3804 14.6337 65.2145 13.9604 64.8828 13.5701C64.551 13.1798 64.0144 12.9847 63.2728 12.9847H62.1604V21.3274H58.9404V0.836477H63.7997C65.478 0.836477 66.6928 1.22678 67.4441 2.00739C68.1955 2.788 68.5712 3.96865 68.5712 5.54939V7.15939C68.5712 9.26703 67.8686 10.6526 66.4635 11.3161C67.2831 11.6479 67.8442 12.1894 68.1467 12.9408C68.4492 13.6921 68.6004 14.6044 68.6004 15.6778V18.8392C68.6004 19.3466 68.6199 19.7906 68.659 20.1711C68.698 20.5517 68.7956 20.9371 68.9517 21.3274H65.6731ZM62.1604 3.76375V10.0574H63.4192C64.0241 10.0574 64.4974 9.90127 64.8389 9.58902C65.1804 9.27678 65.3512 8.71084 65.3512 7.8912V5.87139C65.3512 5.12981 65.2194 4.59314 64.956 4.26139C64.6925 3.92963 64.2778 3.76375 63.7119 3.76375H62.1604ZM74.1121 0.836477V16.6437C74.1121 17.3853 74.2633 17.9025 74.5658 18.1952C74.8683 18.4879 75.2732 18.6343 75.7806 18.6343C76.288 18.6343 76.6929 18.4879 76.9954 18.1952C77.2979 17.9025 77.4491 17.3853 77.4491 16.6437V0.836477H80.4935V16.4388C80.4935 18.0976 80.0886 19.371 79.2787 20.2589C78.4688 21.1469 77.2735 21.5908 75.6928 21.5908C74.1121 21.5908 72.9168 21.1469 72.1069 20.2589C71.297 19.371 70.8921 18.0976 70.8921 16.4388V0.836477H74.1121ZM91.8179 0.836477H101.771V3.76375H98.4042V21.3274H95.1842V3.76375H91.8179V0.836477Z" fill="white"/>
<path fill-rule="evenodd" clip-rule="evenodd" d="M82.0234 11.4851L90.3871 1.03052V21.9396L82.0234 11.4851Z" fill="#00A4E5"/>
</svg>
