<svg width="81" height="18" viewBox="0 0 81 18" fill="none" xmlns="http://www.w3.org/2000/svg">
<path fill-rule="evenodd" clip-rule="evenodd" d="M4.23641 10.2993L3.4575 11.7655V16.6909H0.9375V0.654556H3.4575V7.64183L6.75641 0.654556H9.27641L5.77132 7.80219L9.27641 16.6909H6.68768L4.23641 10.2993ZM12.8339 13.0026C12.8339 13.5829 12.9522 13.9915 13.189 14.2282C13.4257 14.4649 13.7426 14.5833 14.1397 14.5833C14.5368 14.5833 14.8537 14.4649 15.0904 14.2282C15.3271 13.9915 15.4455 13.5829 15.4455 13.0026V4.34292C15.4455 3.76255 15.3271 3.35401 15.0904 3.11728C14.8537 2.88055 14.5368 2.76219 14.1397 2.76219C13.7426 2.76219 13.4257 2.88055 13.189 3.11728C12.9522 3.35401 12.8339 3.76255 12.8339 4.34292V13.0026ZM10.3139 4.50328C10.3139 3.20509 10.6422 2.20856 11.299 1.51365C11.9557 0.818734 12.9026 0.471283 14.1397 0.471283C15.3768 0.471283 16.3237 0.818734 16.9804 1.51365C17.6371 2.20856 17.9655 3.20509 17.9655 4.50328V12.8422C17.9655 14.1404 17.6371 15.1369 16.9804 15.8318C16.3237 16.5267 15.3768 16.8742 14.1397 16.8742C12.9026 16.8742 11.9557 16.5267 11.299 15.8318C10.6422 15.1369 10.3139 14.1404 10.3139 12.8422V4.50328ZM22.0957 5.07601V16.6909H19.8277V0.654556H22.9891L25.5779 10.2535V0.654556H27.823V16.6909H25.2342L22.0957 5.07601ZM29.5706 4.50328C29.5706 3.20509 29.8799 2.20856 30.4984 1.51365C31.117 0.818734 32.0448 0.471283 33.2819 0.471283C34.519 0.471283 35.4468 0.818734 36.0653 1.51365C36.6839 2.20856 36.9931 3.20509 36.9931 4.50328V5.00728H34.6106V4.34292C34.6106 3.76255 34.4999 3.35401 34.2784 3.11728C34.057 2.88055 33.7477 2.76219 33.3506 2.76219C32.9535 2.76219 32.6442 2.88055 32.4228 3.11728C32.2013 3.35401 32.0906 3.76255 32.0906 4.34292C32.0906 4.89274 32.2128 5.37764 32.4571 5.79765C32.7015 6.21765 33.007 6.61474 33.3735 6.98892C33.74 7.3631 34.1333 7.73728 34.5533 8.11146C34.9733 8.48565 35.3666 8.89419 35.7331 9.3371C36.0997 9.78001 36.4051 10.284 36.6495 10.8491C36.8939 11.4142 37.016 12.0786 37.016 12.8422C37.016 14.1404 36.6991 15.1369 36.0653 15.8318C35.4315 16.5267 34.4961 16.8742 33.259 16.8742C32.0219 16.8742 31.0864 16.5267 30.4526 15.8318C29.8188 15.1369 29.5019 14.1404 29.5019 12.8422V11.8571H31.8844V13.0026C31.8844 13.5829 32.0028 13.9876 32.2395 14.2167C32.4762 14.4458 32.7931 14.5604 33.1902 14.5604C33.5873 14.5604 33.9042 14.4458 34.141 14.2167C34.3777 13.9876 34.496 13.5829 34.496 13.0026C34.496 12.4527 34.3739 11.9678 34.1295 11.5478C33.8851 11.1278 33.5797 10.7307 33.2131 10.3566C32.8466 9.98237 32.4533 9.60819 32.0333 9.23401C31.6133 8.85983 31.22 8.45129 30.8535 8.00837C30.487 7.56546 30.1815 7.06147 29.9371 6.49637C29.6928 5.93128 29.5706 5.26692 29.5706 4.50328ZM37.9848 0.654556H45.7739V2.94546H43.1393V16.6909H40.6193V2.94546H37.9848V0.654556ZM52.4011 16.6909C52.3706 16.584 52.34 16.4847 52.3095 16.3931C52.279 16.3015 52.2522 16.1869 52.2293 16.0495C52.2064 15.912 52.1911 15.7364 52.1835 15.5226C52.1759 15.3087 52.172 15.0415 52.172 14.7207V12.2007C52.172 11.4524 52.0422 10.9255 51.7826 10.62C51.523 10.3146 51.103 10.1618 50.5226 10.1618H49.652V16.6909H47.132V0.654556H50.935C52.2484 0.654556 53.1991 0.960007 53.7871 1.57092C54.3751 2.18183 54.6691 3.10582 54.6691 4.34292V5.60292C54.6691 7.25238 54.1193 8.33673 53.0197 8.85601C53.6611 9.11565 54.1002 9.53946 54.337 10.1275C54.5737 10.7155 54.692 11.4295 54.692 12.2695V14.7436C54.692 15.1407 54.7073 15.4882 54.7379 15.786C54.7684 16.0838 54.8448 16.3855 54.967 16.6909H52.4011ZM49.6521 2.94546V7.87092H50.6371C51.1106 7.87092 51.481 7.74874 51.7482 7.50437C52.0155 7.26001 52.1491 6.8171 52.1491 6.17565V4.59492C52.1491 4.01455 52.0461 3.59456 51.8399 3.33492C51.6337 3.07528 51.3091 2.94546 50.8662 2.94546H49.6521ZM59.0055 0.654556V13.0255C59.0055 13.6058 59.1239 14.0106 59.3606 14.2396C59.5973 14.4687 59.9142 14.5833 60.3113 14.5833C60.7084 14.5833 61.0253 14.4687 61.262 14.2396C61.4988 14.0106 61.6171 13.6058 61.6171 13.0255V0.654556H63.9997V12.8651C63.9997 14.1633 63.6828 15.1598 63.049 15.8547C62.4151 16.5497 61.4797 16.8971 60.2426 16.8971C59.0055 16.8971 58.07 16.5497 57.4362 15.8547C56.8024 15.1598 56.4855 14.1633 56.4855 12.8651V0.654556H59.0055ZM72.8622 0.654556H80.6513V2.94546H78.0168V16.6909H75.4968V2.94546H72.8622V0.654556Z" fill="#171819"/>
<path fill-rule="evenodd" clip-rule="evenodd" d="M65.1953 8.98837L71.7408 0.806549V17.1702L65.1953 8.98837Z" fill="#00A4E5"/>
</svg>
