<svg width="103" height="23" viewBox="0 0 103 23" fill="none" xmlns="http://www.w3.org/2000/svg">
<path fill-rule="evenodd" clip-rule="evenodd" d="M5.12934 13.1602L4.13406 15.0336V21.3273H0.914062V0.836355H4.13406V9.76454L8.34934 0.836355H11.5693L7.09061 9.96945L11.5693 21.3273H8.26152L5.12934 13.1602ZM16.115 16.6144C16.115 17.3559 16.2662 17.878 16.5687 18.1804C16.8712 18.4829 17.2761 18.6342 17.7835 18.6342C18.2909 18.6342 18.6958 18.4829 18.9983 18.1804C19.3008 17.878 19.4521 17.3559 19.4521 16.6144V5.54926C19.4521 4.80768 19.3008 4.28566 18.9983 3.98317C18.6958 3.68069 18.2909 3.52945 17.7835 3.52945C17.2761 3.52945 16.8712 3.68069 16.5687 3.98317C16.2662 4.28566 16.115 4.80768 16.115 5.54926V16.6144ZM12.895 5.75417C12.895 4.09538 13.3145 2.82203 14.1537 1.93408C14.9929 1.04614 16.2028 0.602173 17.7835 0.602173C19.3643 0.602173 20.5742 1.04614 21.4133 1.93408C22.2525 2.82203 22.6721 4.09538 22.6721 5.75417V16.4094C22.6721 18.0682 22.2525 19.3416 21.4133 20.2295C20.5742 21.1175 19.3643 21.5614 17.7835 21.5614C16.2028 21.5614 14.9929 21.1175 14.1537 20.2295C13.3145 19.3416 12.895 18.0682 12.895 16.4094V5.75417ZM27.9495 6.48599V21.3273H25.0515V0.836355H29.0912L32.399 13.1016V0.836355H35.2677V21.3273H31.9599L27.9495 6.48599ZM37.5008 5.75417C37.5008 4.09538 37.896 2.82203 38.6863 1.93408C39.4767 1.04614 40.6622 0.602173 42.243 0.602173C43.8237 0.602173 45.0092 1.04614 45.7996 1.93408C46.59 2.82203 46.9852 4.09538 46.9852 5.75417V6.39817H43.9408V5.54926C43.9408 4.80768 43.7993 4.28566 43.5163 3.98317C43.2334 3.68069 42.8382 3.52945 42.3308 3.52945C41.8234 3.52945 41.4282 3.68069 41.1452 3.98317C40.8623 4.28566 40.7208 4.80768 40.7208 5.54926C40.7208 6.25181 40.8769 6.87141 41.1892 7.40808C41.5014 7.94475 41.8917 8.45214 42.3601 8.93026C42.8284 9.40839 43.3309 9.8865 43.8676 10.3646C44.4043 10.8428 44.9068 11.3648 45.3752 11.9307C45.8435 12.4967 46.2338 13.1407 46.5461 13.8627C46.8583 14.5848 47.0144 15.4337 47.0144 16.4094C47.0144 18.0682 46.6095 19.3416 45.7996 20.2295C44.9897 21.1175 43.7944 21.5614 42.2137 21.5614C40.633 21.5614 39.4377 21.1175 38.6278 20.2295C37.8179 19.3416 37.413 18.0682 37.413 16.4094V15.1507H40.4573V16.6144C40.4573 17.3559 40.6086 17.8731 40.9111 18.1658C41.2135 18.4585 41.6185 18.6049 42.1259 18.6049C42.6333 18.6049 43.0382 18.4585 43.3407 18.1658C43.6432 17.8731 43.7944 17.3559 43.7944 16.6144C43.7944 15.9118 43.6383 15.2922 43.3261 14.7555C43.0138 14.2189 42.6235 13.7115 42.1552 13.2334C41.6868 12.7552 41.1843 12.2771 40.6476 11.799C40.1109 11.3209 39.6084 10.7988 39.1401 10.2329C38.6717 9.66696 38.2814 9.02296 37.9692 8.3009C37.6569 7.57884 37.5008 6.72993 37.5008 5.75417ZM48.2522 0.836355H58.205V3.76363H54.8386V21.3273H51.6186V3.76363H48.2522V0.836355ZM66.6731 21.3273C66.6341 21.1907 66.5951 21.0638 66.5561 20.9467C66.517 20.8296 66.4829 20.6833 66.4536 20.5076C66.4243 20.332 66.4048 20.1076 66.3951 19.8344C66.3853 19.5611 66.3804 19.2196 66.3804 18.8098V15.5898C66.3804 14.6336 66.2145 13.9603 65.8828 13.57C65.551 13.1797 65.0144 12.9845 64.2728 12.9845H63.1604V21.3273H59.9404V0.836355H64.7997C66.478 0.836355 67.6928 1.22665 68.4441 2.00726C69.1955 2.78787 69.5711 3.96853 69.5711 5.54926V7.15926C69.5711 9.26691 68.8686 10.6525 67.4635 11.316C68.2832 11.6478 68.8442 12.1893 69.1467 12.9406C69.4492 13.692 69.6004 14.6043 69.6004 15.6776V18.8391C69.6004 19.3465 69.6199 19.7904 69.659 20.171C69.698 20.5515 69.7956 20.937 69.9517 21.3273H66.6731ZM63.1604 3.76363V10.0573H64.4192C65.0241 10.0573 65.4974 9.90114 65.8389 9.5889C66.1804 9.27666 66.3512 8.71072 66.3512 7.89108V5.87126C66.3512 5.12968 66.2194 4.59302 65.956 4.26126C65.6925 3.9295 65.2778 3.76363 64.7119 3.76363H63.1604ZM75.1121 0.836355V16.6436C75.1121 17.3852 75.2633 17.9024 75.5658 18.1951C75.8683 18.4878 76.2732 18.6342 76.7806 18.6342C77.288 18.6342 77.6929 18.4878 77.9954 18.1951C78.2979 17.9024 78.4491 17.3852 78.4491 16.6436V0.836355H81.4935V16.4387C81.4935 18.0975 81.0886 19.3709 80.2787 20.2588C79.4688 21.1468 78.2735 21.5907 76.6928 21.5907C75.112 21.5907 73.9168 21.1468 73.1069 20.2588C72.297 19.3709 71.8921 18.0975 71.8921 16.4387V0.836355H75.1121ZM92.8179 0.836355H102.771V3.76363H99.4042V21.3273H96.1842V3.76363H92.8179V0.836355Z" fill="white" />
<path fill-rule="evenodd" clip-rule="evenodd" d="M83.0234 11.4851L91.3871 1.03058V21.9397L83.0234 11.4851Z" fill="#00A4E5"/>
</svg>
